#N canvas 0 23 1920 1155 10;
#X obj 845 938 dac~;
#N canvas 0 23 999 1095 modbox 0;
#X obj 455 896 osc~ 440;
#X obj 11 42 hsl 200 15 20 1000 0 0 empty empty empty -2 -8 0 10 -262144
-1 -1 2400 1;
#X obj 427 828 *~;
#X obj 461 637 osc~;
#X obj 11 24 hsl 200 15 0 100 0 0 \$0-freq-s empty empty -2 -8 0 10
-262144 -1 -1 4100 1;
#X obj 435 861 +~;
#X obj 11 60 hsl 200 15 20 2000 0 0 empty empty empty -2 -8 0 10 -262144
-1 -1 3600 1;
#X obj 374 632 phasor~;
#X obj 3 3 hradio 15 1 0 4 empty empty empty 0 -8 0 10 -262144 -1 -1
2;
#X floatatom 67 3 5 0 0 0 - - -;
#X msg 430 607 0;
#X msg 460 607 1;
#X obj 417 661 *~;
#X msg 495 606 0;
#X msg 525 606 1;
#X obj 482 660 *~;
#X obj 533 650 >~;
#X obj 11 78 hsl 200 15 0 1 0 0 empty empty empty -2 -8 0 10 -262144
-1 -1 9300 1;
#X obj 445 554 sel 1;
#X obj 482 554 sel 0;
#X msg 554 619 0;
#X msg 584 619 1;
#X obj 541 673 *~;
#X obj 541 567 sel 2;
#X obj 455 926 outlet~;
#X obj 476 382 inlet~;
#X obj 519 382 inlet~;
#X obj 561 382 inlet~;
#X obj 603 381 inlet~;
#X obj 264 507 sig~;
#X obj 264 489 r \$0-freq-s;
#X obj 247 784 sig~;
#X obj 660 538 sig~;
#X obj 247 660 sig~;
#X connect 0 0 24 0;
#X connect 1 0 33 0;
#X connect 2 0 5 0;
#X connect 3 0 15 0;
#X connect 5 0 0 0;
#X connect 6 0 31 0;
#X connect 7 0 12 0;
#X connect 7 0 16 0;
#X connect 8 0 9 0;
#X connect 8 0 18 0;
#X connect 8 0 19 0;
#X connect 8 0 23 0;
#X connect 10 0 12 1;
#X connect 11 0 12 1;
#X connect 12 0 2 0;
#X connect 13 0 15 1;
#X connect 14 0 15 1;
#X connect 15 0 2 0;
#X connect 16 0 22 0;
#X connect 17 0 32 0;
#X connect 18 0 11 0;
#X connect 18 1 10 0;
#X connect 19 0 14 0;
#X connect 19 1 13 0;
#X connect 20 0 22 1;
#X connect 21 0 22 1;
#X connect 22 0 2 0;
#X connect 23 0 21 0;
#X connect 23 1 20 0;
#X connect 25 0 7 0;
#X connect 25 0 3 0;
#X connect 26 0 2 1;
#X connect 27 0 5 1;
#X connect 28 0 16 1;
#X connect 29 0 7 0;
#X connect 29 0 3 0;
#X connect 30 0 29 0;
#X connect 31 0 5 1;
#X connect 32 0 16 1;
#X connect 33 0 2 1;
#X coords 0 -1 1 1 220 100 1 0 0;
#X restore 895 725 pd modbox;
#X connect 1 0 0 0;
#X connect 1 0 0 1;
